<mxfile host="Electron" modified="2023-06-02T16:26:52.635Z" agent="Mozilla/5.0 (Windows NT 10.0; Win64; x64) AppleWebKit/537.36 (KHTML, like Gecko) draw.io/21.2.8 Chrome/112.0.5615.165 Electron/24.2.0 Safari/537.36" etag="4DrmC7anr8RxmswJQH6p" version="21.2.8" type="device">
  <diagram name="Страница 1" id="pd2_QGgxLqAeMeghwPom">
    <mxGraphModel dx="1106" dy="765" grid="1" gridSize="10" guides="1" tooltips="1" connect="1" arrows="1" fold="1" page="1" pageScale="1" pageWidth="827" pageHeight="1169" math="0" shadow="0">
      <root>
        <mxCell id="0" />
        <mxCell id="1" parent="0" />
        <mxCell id="EnKhccXstTRSBeVRsy0G-5" style="edgeStyle=orthogonalEdgeStyle;rounded=0;orthogonalLoop=1;jettySize=auto;html=1;exitX=0.5;exitY=1;exitDx=0;exitDy=0;entryX=0.5;entryY=0;entryDx=0;entryDy=0;" edge="1" parent="1" source="EnKhccXstTRSBeVRsy0G-2" target="EnKhccXstTRSBeVRsy0G-3">
          <mxGeometry relative="1" as="geometry" />
        </mxCell>
        <mxCell id="EnKhccXstTRSBeVRsy0G-2" value="Begin" style="rounded=1;whiteSpace=wrap;html=1;" vertex="1" parent="1">
          <mxGeometry x="200" y="40" width="120" height="60" as="geometry" />
        </mxCell>
        <mxCell id="EnKhccXstTRSBeVRsy0G-6" style="edgeStyle=orthogonalEdgeStyle;rounded=0;orthogonalLoop=1;jettySize=auto;html=1;exitX=0.5;exitY=1;exitDx=0;exitDy=0;entryX=0.5;entryY=0;entryDx=0;entryDy=0;" edge="1" parent="1" source="EnKhccXstTRSBeVRsy0G-3" target="EnKhccXstTRSBeVRsy0G-4">
          <mxGeometry relative="1" as="geometry" />
        </mxCell>
        <mxCell id="EnKhccXstTRSBeVRsy0G-3" value="array,l" style="shape=parallelogram;perimeter=parallelogramPerimeter;whiteSpace=wrap;html=1;fixedSize=1;" vertex="1" parent="1">
          <mxGeometry x="200" y="140" width="120" height="60" as="geometry" />
        </mxCell>
        <mxCell id="EnKhccXstTRSBeVRsy0G-11" style="edgeStyle=orthogonalEdgeStyle;rounded=0;orthogonalLoop=1;jettySize=auto;html=1;exitX=0.5;exitY=1;exitDx=0;exitDy=0;entryX=0.5;entryY=0;entryDx=0;entryDy=0;" edge="1" parent="1" source="EnKhccXstTRSBeVRsy0G-4" target="EnKhccXstTRSBeVRsy0G-7">
          <mxGeometry relative="1" as="geometry" />
        </mxCell>
        <mxCell id="EnKhccXstTRSBeVRsy0G-18" style="edgeStyle=orthogonalEdgeStyle;rounded=0;orthogonalLoop=1;jettySize=auto;html=1;exitX=1;exitY=0.5;exitDx=0;exitDy=0;entryX=0.568;entryY=-0.005;entryDx=0;entryDy=0;entryPerimeter=0;" edge="1" parent="1" source="EnKhccXstTRSBeVRsy0G-4" target="EnKhccXstTRSBeVRsy0G-13">
          <mxGeometry relative="1" as="geometry" />
        </mxCell>
        <mxCell id="EnKhccXstTRSBeVRsy0G-4" value="&lt;div style=&quot;color: rgb(212, 212, 212); background-color: rgb(30, 30, 30); font-family: Consolas, &amp;quot;Courier New&amp;quot;, monospace; line-height: 19px; font-size: 6px;&quot;&gt;int &lt;span style=&quot;color: #9cdcfe;&quot;&gt;i&lt;/span&gt; = &lt;span style=&quot;color: #b5cea8;&quot;&gt;0&lt;/span&gt;; &lt;span style=&quot;color: #9cdcfe;&quot;&gt;i&lt;/span&gt; &amp;lt; &lt;span style=&quot;color: #9cdcfe;&quot;&gt;array&lt;/span&gt;.Length; &lt;span style=&quot;color: #9cdcfe;&quot;&gt;i&lt;/span&gt;++&lt;/div&gt;" style="shape=hexagon;perimeter=hexagonPerimeter2;whiteSpace=wrap;html=1;fixedSize=1;" vertex="1" parent="1">
          <mxGeometry x="200" y="240" width="120" height="80" as="geometry" />
        </mxCell>
        <mxCell id="EnKhccXstTRSBeVRsy0G-9" style="edgeStyle=orthogonalEdgeStyle;rounded=0;orthogonalLoop=1;jettySize=auto;html=1;exitX=1;exitY=0.5;exitDx=0;exitDy=0;entryX=0.5;entryY=0;entryDx=0;entryDy=0;" edge="1" parent="1" source="EnKhccXstTRSBeVRsy0G-7" target="EnKhccXstTRSBeVRsy0G-8">
          <mxGeometry relative="1" as="geometry" />
        </mxCell>
        <mxCell id="EnKhccXstTRSBeVRsy0G-10" style="edgeStyle=orthogonalEdgeStyle;rounded=0;orthogonalLoop=1;jettySize=auto;html=1;exitX=0;exitY=0.5;exitDx=0;exitDy=0;" edge="1" parent="1" source="EnKhccXstTRSBeVRsy0G-7">
          <mxGeometry relative="1" as="geometry">
            <mxPoint x="260" y="540" as="targetPoint" />
            <Array as="points">
              <mxPoint x="160" y="400" />
              <mxPoint x="160" y="510" />
              <mxPoint x="260" y="510" />
            </Array>
          </mxGeometry>
        </mxCell>
        <mxCell id="EnKhccXstTRSBeVRsy0G-7" value="&lt;div style=&quot;color: rgb(212, 212, 212); background-color: rgb(30, 30, 30); font-family: Consolas, &amp;quot;Courier New&amp;quot;, monospace; line-height: 19px; font-size: 8px;&quot;&gt;array[&lt;span style=&quot;color: #9cdcfe;&quot;&gt;i&lt;/span&gt;].Length &amp;lt;= &lt;span style=&quot;color: rgb(181, 206, 168);&quot;&gt;3&lt;/span&gt;&lt;/div&gt;" style="rhombus;whiteSpace=wrap;html=1;" vertex="1" parent="1">
          <mxGeometry x="200" y="360" width="120" height="80" as="geometry" />
        </mxCell>
        <mxCell id="EnKhccXstTRSBeVRsy0G-12" style="edgeStyle=orthogonalEdgeStyle;rounded=0;orthogonalLoop=1;jettySize=auto;html=1;exitX=0.5;exitY=1;exitDx=0;exitDy=0;entryX=0;entryY=0.5;entryDx=0;entryDy=0;" edge="1" parent="1" source="EnKhccXstTRSBeVRsy0G-8" target="EnKhccXstTRSBeVRsy0G-4">
          <mxGeometry relative="1" as="geometry">
            <mxPoint x="260" y="540" as="targetPoint" />
            <Array as="points">
              <mxPoint x="380" y="510" />
              <mxPoint x="260" y="510" />
              <mxPoint x="260" y="540" />
              <mxPoint x="90" y="540" />
              <mxPoint x="90" y="280" />
            </Array>
          </mxGeometry>
        </mxCell>
        <mxCell id="EnKhccXstTRSBeVRsy0G-8" value="&lt;div style=&quot;color: rgb(212, 212, 212); background-color: rgb(30, 30, 30); font-family: Consolas, &amp;quot;Courier New&amp;quot;, monospace; line-height: 19px; font-size: 8px;&quot;&gt;&lt;div style=&quot;line-height: 19px;&quot;&gt;l = &lt;span style=&quot;color: #9cdcfe;&quot;&gt;l&lt;/span&gt; + &lt;span style=&quot;color: #b5cea8;&quot;&gt;1&lt;/span&gt;;&lt;/div&gt;&lt;/div&gt;" style="rounded=0;whiteSpace=wrap;html=1;" vertex="1" parent="1">
          <mxGeometry x="320" y="430" width="120" height="60" as="geometry" />
        </mxCell>
        <mxCell id="EnKhccXstTRSBeVRsy0G-19" style="edgeStyle=orthogonalEdgeStyle;rounded=0;orthogonalLoop=1;jettySize=auto;html=1;exitX=0.5;exitY=1;exitDx=0;exitDy=0;entryX=0.5;entryY=0;entryDx=0;entryDy=0;" edge="1" parent="1" source="EnKhccXstTRSBeVRsy0G-13" target="EnKhccXstTRSBeVRsy0G-14">
          <mxGeometry relative="1" as="geometry" />
        </mxCell>
        <mxCell id="EnKhccXstTRSBeVRsy0G-13" value="&lt;div style=&quot;color: rgb(212, 212, 212); background-color: rgb(30, 30, 30); font-family: Consolas, &amp;quot;Courier New&amp;quot;, monospace; line-height: 19px;&quot;&gt;&lt;font style=&quot;font-size: 12px;&quot;&gt;array2,j&lt;/font&gt;&lt;/div&gt;" style="shape=parallelogram;perimeter=parallelogramPerimeter;whiteSpace=wrap;html=1;fixedSize=1;" vertex="1" parent="1">
          <mxGeometry x="520" y="40" width="120" height="60" as="geometry" />
        </mxCell>
        <mxCell id="EnKhccXstTRSBeVRsy0G-20" style="edgeStyle=orthogonalEdgeStyle;rounded=0;orthogonalLoop=1;jettySize=auto;html=1;exitX=0.5;exitY=1;exitDx=0;exitDy=0;entryX=0.5;entryY=0;entryDx=0;entryDy=0;" edge="1" parent="1" source="EnKhccXstTRSBeVRsy0G-14" target="EnKhccXstTRSBeVRsy0G-15">
          <mxGeometry relative="1" as="geometry" />
        </mxCell>
        <mxCell id="EnKhccXstTRSBeVRsy0G-27" style="edgeStyle=orthogonalEdgeStyle;rounded=0;orthogonalLoop=1;jettySize=auto;html=1;exitX=1;exitY=0.5;exitDx=0;exitDy=0;entryX=0;entryY=0.5;entryDx=0;entryDy=0;" edge="1" parent="1" source="EnKhccXstTRSBeVRsy0G-14" target="EnKhccXstTRSBeVRsy0G-25">
          <mxGeometry relative="1" as="geometry" />
        </mxCell>
        <mxCell id="EnKhccXstTRSBeVRsy0G-14" value="&lt;div style=&quot;color: rgb(212, 212, 212); background-color: rgb(30, 30, 30); font-family: Consolas, &amp;quot;Courier New&amp;quot;, monospace; line-height: 19px; font-size: 6px;&quot;&gt;int &lt;span style=&quot;color: #9cdcfe;&quot;&gt;i&lt;/span&gt; = &lt;span style=&quot;color: #b5cea8;&quot;&gt;0&lt;/span&gt;; &lt;span style=&quot;color: #9cdcfe;&quot;&gt;i&lt;/span&gt; &amp;lt; &lt;span style=&quot;color: #9cdcfe;&quot;&gt;array&lt;/span&gt;.Length; &lt;span style=&quot;color: #9cdcfe;&quot;&gt;i&lt;/span&gt;++&lt;/div&gt;" style="shape=hexagon;perimeter=hexagonPerimeter2;whiteSpace=wrap;html=1;fixedSize=1;" vertex="1" parent="1">
          <mxGeometry x="520" y="130" width="120" height="80" as="geometry" />
        </mxCell>
        <mxCell id="EnKhccXstTRSBeVRsy0G-21" style="edgeStyle=orthogonalEdgeStyle;rounded=0;orthogonalLoop=1;jettySize=auto;html=1;entryX=0.5;entryY=0;entryDx=0;entryDy=0;" edge="1" parent="1" source="EnKhccXstTRSBeVRsy0G-15" target="EnKhccXstTRSBeVRsy0G-17">
          <mxGeometry relative="1" as="geometry">
            <mxPoint x="800" y="330" as="targetPoint" />
            <Array as="points">
              <mxPoint x="700" y="280" />
            </Array>
          </mxGeometry>
        </mxCell>
        <mxCell id="EnKhccXstTRSBeVRsy0G-23" style="edgeStyle=orthogonalEdgeStyle;rounded=0;orthogonalLoop=1;jettySize=auto;html=1;exitX=0;exitY=0.5;exitDx=0;exitDy=0;" edge="1" parent="1" source="EnKhccXstTRSBeVRsy0G-15">
          <mxGeometry relative="1" as="geometry">
            <mxPoint x="580" y="420" as="targetPoint" />
            <Array as="points">
              <mxPoint x="480" y="280" />
              <mxPoint x="480" y="400" />
              <mxPoint x="580" y="400" />
            </Array>
          </mxGeometry>
        </mxCell>
        <mxCell id="EnKhccXstTRSBeVRsy0G-15" value="&lt;div style=&quot;color: rgb(212, 212, 212); background-color: rgb(30, 30, 30); font-family: Consolas, &amp;quot;Courier New&amp;quot;, monospace; line-height: 19px; font-size: 8px;&quot;&gt;array[&lt;span style=&quot;color: #9cdcfe;&quot;&gt;i&lt;/span&gt;].Length &amp;lt;= &lt;span style=&quot;color: #b5cea8;&quot;&gt;3&lt;/span&gt;&lt;/div&gt;" style="rhombus;whiteSpace=wrap;html=1;" vertex="1" parent="1">
          <mxGeometry x="520" y="240" width="120" height="80" as="geometry" />
        </mxCell>
        <mxCell id="EnKhccXstTRSBeVRsy0G-22" style="edgeStyle=orthogonalEdgeStyle;rounded=0;orthogonalLoop=1;jettySize=auto;html=1;exitX=0.5;exitY=1;exitDx=0;exitDy=0;" edge="1" parent="1" source="EnKhccXstTRSBeVRsy0G-17">
          <mxGeometry relative="1" as="geometry">
            <mxPoint x="580" y="420" as="targetPoint" />
            <Array as="points">
              <mxPoint x="700" y="400" />
              <mxPoint x="580" y="400" />
            </Array>
          </mxGeometry>
        </mxCell>
        <mxCell id="EnKhccXstTRSBeVRsy0G-17" value="&lt;div style=&quot;color: rgb(212, 212, 212); background-color: rgb(30, 30, 30); font-family: Consolas, &amp;quot;Courier New&amp;quot;, monospace; line-height: 19px; font-size: 8px;&quot;&gt;&lt;div&gt;array2[&lt;span style=&quot;color: #9cdcfe;&quot;&gt;j&lt;/span&gt;] = &lt;span style=&quot;color: #9cdcfe;&quot;&gt;array&lt;/span&gt;[&lt;span style=&quot;color: #9cdcfe;&quot;&gt;i&lt;/span&gt;];&lt;/div&gt;&lt;div&gt;&amp;nbsp; &amp;nbsp; &amp;nbsp; &amp;nbsp; &amp;nbsp; &amp;nbsp; &lt;span style=&quot;color: #9cdcfe;&quot;&gt;j&lt;/span&gt; = &lt;span style=&quot;color: #9cdcfe;&quot;&gt;j&lt;/span&gt; + &lt;span style=&quot;color: #b5cea8;&quot;&gt;1&lt;/span&gt;;&lt;/div&gt;&lt;/div&gt;" style="rounded=0;whiteSpace=wrap;html=1;" vertex="1" parent="1">
          <mxGeometry x="640" y="310" width="120" height="60" as="geometry" />
        </mxCell>
        <mxCell id="EnKhccXstTRSBeVRsy0G-24" value="" style="endArrow=classic;html=1;rounded=0;entryX=0;entryY=0.5;entryDx=0;entryDy=0;" edge="1" parent="1" target="EnKhccXstTRSBeVRsy0G-14">
          <mxGeometry width="50" height="50" relative="1" as="geometry">
            <mxPoint x="580" y="420" as="sourcePoint" />
            <mxPoint x="490" y="420" as="targetPoint" />
            <Array as="points">
              <mxPoint x="450" y="420" />
              <mxPoint x="450" y="170" />
            </Array>
          </mxGeometry>
        </mxCell>
        <mxCell id="EnKhccXstTRSBeVRsy0G-28" style="edgeStyle=orthogonalEdgeStyle;rounded=0;orthogonalLoop=1;jettySize=auto;html=1;exitX=0.5;exitY=0;exitDx=0;exitDy=0;entryX=0.5;entryY=1;entryDx=0;entryDy=0;" edge="1" parent="1" source="EnKhccXstTRSBeVRsy0G-25" target="EnKhccXstTRSBeVRsy0G-26">
          <mxGeometry relative="1" as="geometry" />
        </mxCell>
        <mxCell id="EnKhccXstTRSBeVRsy0G-25" value="array3" style="shape=parallelogram;perimeter=parallelogramPerimeter;whiteSpace=wrap;html=1;fixedSize=1;" vertex="1" parent="1">
          <mxGeometry x="680" y="140" width="120" height="60" as="geometry" />
        </mxCell>
        <mxCell id="EnKhccXstTRSBeVRsy0G-26" value="End" style="rounded=1;whiteSpace=wrap;html=1;" vertex="1" parent="1">
          <mxGeometry x="680" y="40" width="120" height="60" as="geometry" />
        </mxCell>
        <mxCell id="EnKhccXstTRSBeVRsy0G-29" value="YES" style="text;html=1;align=center;verticalAlign=middle;resizable=0;points=[];autosize=1;strokeColor=none;fillColor=none;" vertex="1" parent="1">
          <mxGeometry x="260" y="320" width="50" height="30" as="geometry" />
        </mxCell>
        <mxCell id="EnKhccXstTRSBeVRsy0G-30" value="YES" style="text;html=1;align=center;verticalAlign=middle;resizable=0;points=[];autosize=1;strokeColor=none;fillColor=none;" vertex="1" parent="1">
          <mxGeometry x="310" y="370" width="50" height="30" as="geometry" />
        </mxCell>
        <mxCell id="EnKhccXstTRSBeVRsy0G-31" value="YES" style="text;html=1;align=center;verticalAlign=middle;resizable=0;points=[];autosize=1;strokeColor=none;fillColor=none;" vertex="1" parent="1">
          <mxGeometry x="580" y="210" width="50" height="30" as="geometry" />
        </mxCell>
        <mxCell id="EnKhccXstTRSBeVRsy0G-32" value="YES" style="text;html=1;align=center;verticalAlign=middle;resizable=0;points=[];autosize=1;strokeColor=none;fillColor=none;" vertex="1" parent="1">
          <mxGeometry x="630" y="250" width="50" height="30" as="geometry" />
        </mxCell>
        <mxCell id="EnKhccXstTRSBeVRsy0G-33" value="NO" style="text;html=1;align=center;verticalAlign=middle;resizable=0;points=[];autosize=1;strokeColor=none;fillColor=none;" vertex="1" parent="1">
          <mxGeometry x="320" y="250" width="40" height="30" as="geometry" />
        </mxCell>
        <mxCell id="EnKhccXstTRSBeVRsy0G-34" value="NO" style="text;html=1;align=center;verticalAlign=middle;resizable=0;points=[];autosize=1;strokeColor=none;fillColor=none;" vertex="1" parent="1">
          <mxGeometry x="170" y="370" width="40" height="30" as="geometry" />
        </mxCell>
        <mxCell id="EnKhccXstTRSBeVRsy0G-35" value="NO" style="text;html=1;align=center;verticalAlign=middle;resizable=0;points=[];autosize=1;strokeColor=none;fillColor=none;" vertex="1" parent="1">
          <mxGeometry x="490" y="250" width="40" height="30" as="geometry" />
        </mxCell>
        <mxCell id="EnKhccXstTRSBeVRsy0G-36" value="NO" style="text;html=1;align=center;verticalAlign=middle;resizable=0;points=[];autosize=1;strokeColor=none;fillColor=none;" vertex="1" parent="1">
          <mxGeometry x="630" y="140" width="40" height="30" as="geometry" />
        </mxCell>
      </root>
    </mxGraphModel>
  </diagram>
</mxfile>
